<svg width="101" height="101" viewBox="0 0 101 101" fill="none" xmlns="http://www.w3.org/2000/svg">
<circle cx="50.4136" cy="50.1643" r="50" fill="#EC1C23"/>
<path d="M52.2018 43.4468C57.0285 43.4468 60.9551 39.5202 60.9551 34.6935C60.9551 29.8668 57.0285 25.9402 52.2018 25.9402C47.3751 25.9402 43.4485 29.8668 43.4485 34.6935C43.4485 39.5202 47.3751 43.4468 52.2018 43.4468ZM47.2359 34.2987C47.4745 34.0601 47.8609 34.0601 48.0995 34.2987L50.6655 36.8647L56.3033 31.2269C56.5419 30.9884 56.9283 30.9884 57.1669 31.2269C57.4054 31.4655 57.4054 31.8519 57.1669 32.0905L51.0973 38.1601C50.978 38.2793 50.8222 38.339 50.6655 38.339C50.5089 38.339 50.353 38.2793 50.2337 38.1601L47.2359 35.1622C46.9974 34.9237 46.9974 34.5372 47.2359 34.2987H47.2359Z" fill="white"/>
<path d="M39.5474 69.6685C39.4844 69.9457 39.4478 70.2306 39.4478 70.5209C39.4478 72.6536 41.1828 74.3886 43.3155 74.3886C45.4482 74.3886 47.1832 72.6536 47.1832 70.5209C47.1832 70.2306 47.1466 69.9457 47.0837 69.6685H39.5474Z" fill="white"/>
<path d="M60.7183 69.6685C60.6553 69.9457 60.6187 70.2306 60.6187 70.5209C60.6187 72.6536 62.3537 74.3886 64.4864 74.3886C66.6191 74.3886 68.3541 72.6536 68.3541 70.5209C68.3541 70.2306 68.3175 69.9457 68.2546 69.6685H60.7183Z" fill="white"/>
<path d="M69.5811 63.9687H64.3711V61.9088H69.5811C70.816 61.9088 71.8203 60.9041 71.8203 59.6696C71.8203 58.4351 70.816 57.4304 69.5811 57.4304H39.8367L32.2142 27.6244C31.9605 26.6328 31.0683 25.9402 30.045 25.9402H25.611C24.3761 25.9402 23.3718 26.9445 23.3718 28.1794C23.3718 29.4139 24.3761 30.4186 25.611 30.4186H28.3067L35.9293 60.2246C36.1829 61.2162 37.0751 61.9088 38.0993 61.9088H43.6075V63.9687H38.3975C37.1626 63.9687 36.1583 64.9734 36.1583 66.2079C36.1583 67.4428 37.1626 68.4471 38.3975 68.4471H69.5811C70.816 68.4471 71.8203 67.4428 71.8203 66.2079C71.8203 64.9734 70.816 63.9687 69.5811 63.9687ZM61.1141 64.5794C61.1141 64.9165 60.8405 65.1901 60.5034 65.1901H47.4752C47.1381 65.1901 46.8645 64.9165 46.8645 64.5794V61.2981C46.8645 60.9609 47.1381 60.6874 47.4752 60.6874H60.5034C60.8405 60.6874 61.1141 60.9609 61.1141 61.2981V64.5794Z" fill="white"/>
<path d="M66.3242 54.8946C66.6065 54.8946 66.8522 54.701 66.9182 54.4263L71.8037 34.0594C71.8475 33.8777 71.8053 33.6857 71.6892 33.539C71.5731 33.3923 71.3966 33.3064 71.2097 33.3064H62.0686C62.1323 33.7609 62.1765 34.2214 62.1765 34.6932C62.1765 40.1934 57.7021 44.6679 52.2018 44.6679C46.7016 44.6679 42.2271 40.1934 42.2271 34.6932C42.2271 34.2214 42.2714 33.7609 42.3351 33.3064H34.9282L40.4494 54.8946H66.3242H66.3242Z" fill="white"/>
</svg>
