<svg width="101" height="101" viewBox="0 0 101 101" fill="none" xmlns="http://www.w3.org/2000/svg">
<circle cx="50.4033" cy="50.1643" r="50" fill="#EC1C23"/>
<path d="M21.143 51.396V48.3442H27.6982V51.396H21.143ZM41.2358 42.7168C41.2358 43.8317 40.8981 44.7798 40.2226 45.561C39.5472 46.3423 38.5991 46.8794 37.3784 47.1724V47.2456C38.8188 47.4246 39.9093 47.8641 40.6499 48.564C41.3904 49.2557 41.7607 50.1916 41.7607 51.3716C41.7607 53.0887 41.1381 54.4274 39.893 55.3877C38.6479 56.3398 36.8697 56.8159 34.5585 56.8159C32.6217 56.8159 30.9046 56.4945 29.4072 55.8516V52.6411C30.0989 52.991 30.8598 53.2759 31.6899 53.4956C32.52 53.7153 33.3419 53.8252 34.1557 53.8252C35.4008 53.8252 36.3204 53.6136 36.9145 53.1904C37.5086 52.7673 37.8056 52.0877 37.8056 51.1519C37.8056 50.3136 37.4638 49.7196 36.7802 49.3696C36.0966 49.0197 35.0061 48.8447 33.5087 48.8447H32.1538V45.9517H33.5332C34.9166 45.9517 35.9257 45.7726 36.5605 45.4146C37.2034 45.0483 37.5249 44.4258 37.5249 43.5469C37.5249 42.196 36.6785 41.5205 34.9858 41.5205C34.3999 41.5205 33.8017 41.6182 33.1914 41.8135C32.5891 42.0088 31.9178 42.3465 31.1772 42.8267L29.4316 40.2266C31.0592 39.0547 33.0001 38.4688 35.2543 38.4688C37.1017 38.4688 38.5584 38.8431 39.6245 39.5918C40.6987 40.3405 41.2358 41.3822 41.2358 42.7168ZM56.1162 47.6484C56.1162 50.7653 55.6035 53.0724 54.5781 54.5698C53.5608 56.0672 51.9902 56.8159 49.8662 56.8159C47.8072 56.8159 46.2529 56.0428 45.2031 54.4966C44.1614 52.9504 43.6406 50.6676 43.6406 47.6484C43.6406 44.499 44.1492 42.1797 45.1665 40.6904C46.1837 39.193 47.7503 38.4443 49.8662 38.4443C51.9251 38.4443 53.4794 39.2256 54.5293 40.7881C55.5872 42.3506 56.1162 44.6374 56.1162 47.6484ZM47.3881 47.6484C47.3881 49.8376 47.5753 51.4082 47.9497 52.3604C48.3321 53.3044 48.971 53.7764 49.8662 53.7764C50.7451 53.7764 51.3798 53.2962 51.7705 52.3359C52.1611 51.3757 52.3564 49.8132 52.3564 47.6484C52.3564 45.4593 52.157 43.8887 51.7583 42.9365C51.3676 41.9762 50.7369 41.4961 49.8662 41.4961C48.9791 41.4961 48.3444 41.9762 47.9619 42.9365C47.5794 43.8887 47.3881 45.4593 47.3881 47.6484ZM60.8647 44.0718C60.8647 45.1053 60.9542 45.8784 61.1333 46.3911C61.3204 46.8957 61.6175 47.1479 62.0244 47.1479C62.8056 47.1479 63.1962 46.1226 63.1962 44.0718C63.1962 42.0373 62.8056 41.02 62.0244 41.02C61.6175 41.02 61.3204 41.2723 61.1333 41.7769C60.9542 42.2733 60.8647 43.0382 60.8647 44.0718ZM66.2724 44.0474C66.2724 45.9191 65.9103 47.327 65.186 48.271C64.4617 49.2069 63.3997 49.6748 62 49.6748C60.6572 49.6748 59.6196 49.1947 58.8872 48.2344C58.1547 47.266 57.7885 45.8703 57.7885 44.0474C57.7885 40.3283 59.1923 38.4688 62 38.4688C63.3753 38.4688 64.4292 38.953 65.1616 39.9214C65.9021 40.8817 66.2724 42.257 66.2724 44.0474ZM74.6709 38.7251L64.771 56.5718H61.8413L71.7412 38.7251H74.6709ZM73.3647 51.2007C73.3647 52.2342 73.4542 53.0073 73.6333 53.52C73.8204 54.0246 74.1175 54.2769 74.5244 54.2769C75.3056 54.2769 75.6962 53.2515 75.6962 51.2007C75.6962 49.1662 75.3056 48.1489 74.5244 48.1489C74.1175 48.1489 73.8204 48.4012 73.6333 48.9058C73.4542 49.4022 73.3647 50.1672 73.3647 51.2007ZM78.7724 51.1763C78.7724 53.0399 78.4103 54.4437 77.686 55.3877C76.9617 56.3236 75.8997 56.7915 74.5 56.7915C73.1572 56.7915 72.1196 56.3114 71.3872 55.3511C70.6547 54.3826 70.2885 52.991 70.2885 51.1763C70.2885 47.4572 71.6923 45.5977 74.5 45.5977C75.8753 45.5977 76.9292 46.0819 77.6616 47.0503C78.4021 48.0106 78.7724 49.3859 78.7724 51.1763Z" fill="white"/>
</svg>
