<svg width="44" height="22" viewBox="0 0 44 22" fill="none" xmlns="http://www.w3.org/2000/svg">
<path d="M19.2649 1.00306C18.9294 4.81586 18.9294 4.81586 11.8782 10.6133C15.3896 10.201 17.9798 9.82567 20.4733 9.47595C23.1602 9.07504 25.8214 8.57747 28.4827 8.0799C32.1107 7.32643 35.6875 6.37962 39.2188 5.65174C40.6945 5.36457 42.6421 4.12491 43.1852 6.56726C43.7481 8.69401 41.6214 9.25697 40.1458 9.54414C34.9 10.8293 29.5319 12.0434 24.2349 13.1352C21.2836 13.7096 18.23 13.8972 14.7442 14.4062C18.7133 17.2864 23.7516 16.7803 27.4677 20.6584C25.8954 20.9712 24.8832 21.446 23.9364 21.3863C16.8652 20.4651 10.0983 18.7393 3.70097 15.6743C3.11526 15.4155 2.50398 15.0601 2.08602 14.6535C0.343101 13.1495 0.192392 11.017 2.16561 9.87404C7.33747 6.74645 12.6828 3.88329 18.0025 0.923455C18.1447 0.678934 18.5115 0.892178 19.2649 1.00306Z" fill="white"/>
</svg>
