<svg width="84" height="81" viewBox="0 0 84 81" fill="none" xmlns="http://www.w3.org/2000/svg">
<path fill-rule="evenodd" clip-rule="evenodd" d="M29.3586 0.871904C24.4361 1.70709 19.9838 5.20093 17.7388 9.98922C16.7422 12.1154 16.5733 13.0549 16.5825 16.4264C16.5895 19.1526 16.8203 20.8831 17.3278 22.0192L18.0625 23.6641H26.696H35.3295L35.0786 22.1187C34.3403 17.5695 36.8178 11.142 40.7394 7.43366L43.2076 5.09873L42.172 4.27714C40.424 2.88969 37.2297 1.37942 35.4098 1.07982C32.0945 0.534583 31.4729 0.513089 29.3586 0.871904ZM49.3702 5.44965C45.0298 6.67172 41.4386 9.71331 39.383 13.9081C38.3614 15.993 38.1417 17.03 38.1075 19.9356L38.0658 23.4448L53.3891 23.5602C65.3563 23.6505 68.7892 23.5544 69.0642 23.1215C70.06 21.5529 68.9774 15.7847 67.0789 12.5452C63.6434 6.68313 55.946 3.59898 49.3702 5.44965ZM6.20802 12.9979C2.52074 15.2859 2.88043 21.059 6.82652 22.9316C7.82488 23.4053 9.48736 23.6641 11.5319 23.6641H14.6932L14.3879 22.4578C13.6541 19.5575 13.3444 16.4703 13.5843 14.4441L13.8431 12.2592L10.6015 12.2711C8.38591 12.279 6.99584 12.5088 6.20802 12.9979ZM70.5315 13.0269C71.5553 15.4903 72.0611 18.0156 72.0611 20.6633V23.6641H75.7896H79.5181V18.6556C79.5181 15.9009 79.3984 13.3348 79.2519 12.9532C79.0339 12.3842 78.1943 12.2592 74.5991 12.2592C70.5925 12.2592 70.2403 12.3259 70.5315 13.0269ZM3.63184 34.229V43.9345L8.94081 43.7775L14.2498 43.6209L15.7469 41.8672C16.8001 40.6332 17.1633 39.8533 16.972 39.2361C15.9368 35.898 16.4461 33.6135 18.6363 31.7703C19.6386 30.9273 20.4264 30.6825 22.1402 30.6825C24.1242 30.6825 24.5269 30.8575 26.0547 32.3853C27.5904 33.9215 27.7575 34.3097 27.7575 36.3398C27.7575 38.2913 27.5575 38.8093 26.256 40.2297C24.8471 41.7676 24.59 41.8702 22.0647 41.9071C19.5184 41.9439 19.3039 42.0321 18.0437 43.5612C15.9153 46.1436 14.8797 46.4739 8.91756 46.4739H3.63184V49.3251V52.1763H15.914C25.7612 52.1763 28.1962 52.0622 28.1962 51.6003C28.1962 51.2836 28.7392 50.5068 29.4025 49.8738C33.3643 46.094 39.1624 48.3859 39.1624 53.7317C39.1624 56.9655 36.7766 59.1947 33.3161 59.1947C31.1825 59.1947 28.9423 57.784 28.4094 56.1048C28.1475 55.2802 27.6602 55.2468 15.8846 55.2468H3.63184V58.0643V60.8813L9.6036 61.0252L15.5758 61.1686L17.5322 63.3307C19.4622 65.4639 19.5206 65.4911 21.8871 65.3814C24.1584 65.2761 24.3786 65.363 26.0218 67.0061C27.515 68.4989 27.7571 69.0099 27.7558 70.6575C27.7531 73.996 25.1677 76.7406 22.0257 76.7406C20.3974 76.7406 18.1542 75.3848 17.183 73.8135C16.257 72.3151 16.1776 69.8806 16.9905 67.9063C17.1922 67.4163 16.74 66.6127 15.5719 65.384L13.8567 63.5812H8.74429H3.63184V70.1828C3.63184 75.2256 3.78887 77.0881 4.29727 78.0711C5.71717 80.817 3.9345 80.7047 44.0801 80.5815L80.6147 80.4692L80.7332 71.3672L80.8521 62.2652L76.3467 62.2556C72.9086 62.2481 71.4264 62.0542 70.0872 61.4362C63.4653 58.3801 63.3912 49.361 69.96 45.9927C71.2562 45.3277 72.5291 45.1579 76.2107 45.1579H80.8341V36.181C80.8341 27.755 80.7819 27.1764 79.9857 26.75C79.4203 26.4478 67.1092 26.296 43.1217 26.296C7.85076 26.296 7.06997 26.2776 5.36889 25.4099L3.63184 24.5234V34.229ZM20.4378 34.0978C19.5873 34.6382 19.0657 36.5214 19.4675 37.5978C19.9509 38.8923 21.7094 39.5651 23.1636 39.0124C24.5286 38.4935 25.1537 36.9758 24.6036 35.5164C24.1027 34.1886 23.4882 33.7666 22.0551 33.7666C21.452 33.7666 20.7242 33.9153 20.4378 34.0978ZM71.7479 48.2763C68.6734 49.165 67.1491 53.4264 68.7787 56.5773C69.9143 58.7731 71.3584 59.1947 77.7416 59.1947H83.466V53.7585C83.466 49.2062 83.3532 48.2789 82.772 48.0561C81.7105 47.6486 73.3411 47.8161 71.7479 48.2763ZM31.554 51.6626C29.8613 53.533 31.2158 56.5628 33.7451 56.5628C34.7206 56.5628 36.5305 54.7104 36.5305 53.7116C36.5305 53.4146 36.1213 52.6518 35.6212 52.0162C34.5399 50.641 32.6287 50.4748 31.554 51.6626ZM20.2944 68.7616C18.3656 70.3236 19.5662 73.6701 22.0551 73.6701C24.544 73.6701 25.7446 70.3236 23.8158 68.7616C22.5731 67.7558 21.5371 67.7558 20.2944 68.7616Z" fill="white"/>
<path d="M3.63184 28.6313H39.6318V80.6313H20.6318C11.243 80.6313 3.63184 73.0202 3.63184 63.6313V28.6313Z" fill="white"/>
<path d="M16.2041 66H11.6777V53.6074C11.6777 53.2656 11.6826 52.8457 11.6924 52.3477C11.7021 51.8398 11.7168 51.3223 11.7363 50.7949C11.7559 50.2578 11.7754 49.7744 11.7949 49.3447C11.6875 49.4717 11.4678 49.6914 11.1357 50.0039C10.8135 50.3066 10.5107 50.5801 10.2275 50.8242L7.7666 52.8018L5.58398 50.0771L12.4834 44.584H16.2041V66ZM37.0342 55.292C37.0342 57.0205 36.8975 58.5635 36.624 59.9209C36.3604 61.2783 35.9307 62.4307 35.335 63.3779C34.749 64.3252 33.9775 65.0479 33.0205 65.5459C32.0635 66.0439 30.9014 66.293 29.5342 66.293C27.8154 66.293 26.4043 65.8584 25.3008 64.9893C24.1973 64.1104 23.3818 62.8506 22.8545 61.21C22.3271 59.5596 22.0635 57.5869 22.0635 55.292C22.0635 52.9775 22.3027 51 22.7812 49.3594C23.2695 47.709 24.0605 46.4443 25.1543 45.5654C26.248 44.6865 27.708 44.2471 29.5342 44.2471C31.2432 44.2471 32.6494 44.6865 33.7529 45.5654C34.8662 46.4346 35.6914 47.6943 36.2285 49.3447C36.7656 50.9854 37.0342 52.9678 37.0342 55.292ZM26.5605 55.292C26.5605 56.9229 26.6484 58.2852 26.8242 59.3789C27.0098 60.4629 27.3174 61.2783 27.7471 61.8252C28.1768 62.3721 28.7725 62.6455 29.5342 62.6455C30.2861 62.6455 30.877 62.377 31.3066 61.8398C31.7461 61.293 32.0586 60.4775 32.2441 59.3936C32.4297 58.2998 32.5225 56.9326 32.5225 55.292C32.5225 53.6611 32.4297 52.2988 32.2441 51.2051C32.0586 50.1113 31.7461 49.291 31.3066 48.7441C30.877 48.1875 30.2861 47.9092 29.5342 47.9092C28.7725 47.9092 28.1768 48.1875 27.7471 48.7441C27.3174 49.291 27.0098 50.1113 26.8242 51.2051C26.6484 52.2988 26.5605 53.6611 26.5605 55.292ZM44.124 44.2764C45.8037 44.2764 47.0781 44.8623 47.9473 46.0342C48.8164 47.2061 49.251 48.8516 49.251 50.9707C49.251 53.0898 48.8408 54.7451 48.0205 55.9365C47.2002 57.1279 45.9014 57.7236 44.124 57.7236C42.4736 57.7236 41.2188 57.1279 40.3594 55.9365C39.5 54.7451 39.0703 53.0898 39.0703 50.9707C39.0703 48.8516 39.4707 47.2061 40.2715 46.0342C41.082 44.8623 42.3662 44.2764 44.124 44.2764ZM44.1533 47.3379C43.6748 47.3379 43.3232 47.6406 43.0986 48.2461C42.874 48.8516 42.7617 49.7695 42.7617 51C42.7617 52.2305 42.874 53.1533 43.0986 53.7686C43.3232 54.3838 43.6748 54.6914 44.1533 54.6914C44.6318 54.6914 44.9834 54.3887 45.208 53.7832C45.4424 53.168 45.5596 52.2402 45.5596 51C45.5596 49.7695 45.4424 48.8516 45.208 48.2461C44.9834 47.6406 44.6318 47.3379 44.1533 47.3379ZM59.3291 44.584L47.4492 66H43.9336L55.8135 44.584H59.3291ZM59.124 52.8311C60.8037 52.8311 62.0781 53.417 62.9473 54.5889C63.8164 55.7607 64.251 57.4062 64.251 59.5254C64.251 61.6348 63.8408 63.2852 63.0205 64.4766C62.2002 65.668 60.9014 66.2637 59.124 66.2637C57.4736 66.2637 56.2188 65.668 55.3594 64.4766C54.5 63.2852 54.0703 61.6348 54.0703 59.5254C54.0703 57.4062 54.4707 55.7607 55.2715 54.5889C56.082 53.417 57.3662 52.8311 59.124 52.8311ZM59.1533 55.8926C58.6748 55.8926 58.3232 56.1953 58.0986 56.8008C57.874 57.4062 57.7617 58.3242 57.7617 59.5547C57.7617 60.7852 57.874 61.708 58.0986 62.3232C58.3232 62.9385 58.6748 63.2461 59.1533 63.2461C59.6318 63.2461 59.9834 62.9434 60.208 62.3379C60.4424 61.7227 60.5596 60.7949 60.5596 59.5547C60.5596 58.3242 60.4424 57.4062 60.208 56.8008C59.9834 56.1953 59.6318 55.8926 59.1533 55.8926Z" fill="#FBBB31"/>
</svg>
