<svg width="81" height="81" viewBox="0 0 81 81" fill="none" xmlns="http://www.w3.org/2000/svg">
<path fill-rule="evenodd" clip-rule="evenodd" d="M26.3586 0.871904C21.4361 1.70709 16.9838 5.20093 14.7388 9.98922C13.7422 12.1154 13.5733 13.0549 13.5825 16.4264C13.5895 19.1526 13.8203 20.8831 14.3278 22.0192L15.0625 23.6641H23.696H32.3295L32.0786 22.1187C31.3403 17.5695 33.8178 11.142 37.7394 7.43366L40.2076 5.09873L39.172 4.27714C37.424 2.88969 34.2297 1.37942 32.4098 1.07982C29.0945 0.534583 28.4729 0.513089 26.3586 0.871904ZM46.3702 5.44965C42.0298 6.67172 38.4386 9.71331 36.383 13.9081C35.3614 15.993 35.1417 17.03 35.1075 19.9356L35.0658 23.4448L50.3891 23.5602C62.3563 23.6505 65.7892 23.5544 66.0642 23.1215C67.06 21.5529 65.9774 15.7847 64.0789 12.5452C60.6434 6.68313 52.946 3.59898 46.3702 5.44965ZM3.20802 12.9979C-0.479262 15.2859 -0.11957 21.059 3.82652 22.9316C4.82488 23.4053 6.48736 23.6641 8.53191 23.6641H11.6932L11.3879 22.4578C10.6541 19.5575 10.3444 16.4703 10.5843 14.4441L10.8431 12.2592L7.60153 12.2711C5.38591 12.279 3.99584 12.5088 3.20802 12.9979ZM67.5315 13.0269C68.5553 15.4903 69.0611 18.0156 69.0611 20.6633V23.6641H72.7896H76.5181V18.6556C76.5181 15.9009 76.3984 13.3348 76.2519 12.9532C76.0339 12.3842 75.1943 12.2592 71.5991 12.2592C67.5925 12.2592 67.2403 12.3259 67.5315 13.0269ZM0.631836 34.229V43.9345L5.94081 43.7775L11.2498 43.6209L12.7469 41.8672C13.8001 40.6332 14.1633 39.8533 13.972 39.2361C12.9368 35.898 13.4461 33.6135 15.6363 31.7703C16.6386 30.9273 17.4264 30.6825 19.1402 30.6825C21.1242 30.6825 21.5269 30.8575 23.0547 32.3853C24.5904 33.9215 24.7575 34.3097 24.7575 36.3398C24.7575 38.2913 24.5575 38.8093 23.256 40.2297C21.8471 41.7676 21.59 41.8702 19.0647 41.9071C16.5184 41.9439 16.3039 42.0321 15.0437 43.5612C12.9153 46.1436 11.8797 46.4739 5.91756 46.4739H0.631836V49.3251V52.1763H12.914C22.7612 52.1763 25.1962 52.0622 25.1962 51.6003C25.1962 51.2836 25.7392 50.5068 26.4025 49.8738C30.3643 46.094 36.1624 48.3859 36.1624 53.7317C36.1624 56.9655 33.7766 59.1947 30.3161 59.1947C28.1825 59.1947 25.9423 57.784 25.4094 56.1048C25.1475 55.2802 24.6602 55.2468 12.8846 55.2468H0.631836V58.0643V60.8813L6.6036 61.0252L12.5758 61.1686L14.5322 63.3307C16.4622 65.4639 16.5206 65.4911 18.8871 65.3814C21.1584 65.2761 21.3786 65.363 23.0218 67.0061C24.515 68.4989 24.7571 69.0099 24.7558 70.6575C24.7531 73.996 22.1677 76.7406 19.0257 76.7406C17.3974 76.7406 15.1542 75.3848 14.183 73.8135C13.257 72.3151 13.1776 69.8806 13.9905 67.9063C14.1922 67.4163 13.74 66.6127 12.5719 65.384L10.8567 63.5812H5.74429H0.631836V70.1828C0.631836 75.2256 0.788872 77.0881 1.29727 78.0711C2.71717 80.817 0.934501 80.7047 41.0801 80.5815L77.6147 80.4692L77.7332 71.3672L77.8521 62.2652L73.3467 62.2556C69.9086 62.2481 68.4264 62.0542 67.0872 61.4362C60.4653 58.3801 60.3912 49.361 66.96 45.9927C68.2562 45.3277 69.5291 45.1579 73.2107 45.1579H77.8341V36.181C77.8341 27.755 77.7819 27.1764 76.9857 26.75C76.4203 26.4478 64.1092 26.296 40.1217 26.296C4.85076 26.296 4.06997 26.2776 2.36889 25.4099L0.631836 24.5234V34.229ZM17.4378 34.0978C16.5873 34.6382 16.0657 36.5214 16.4675 37.5978C16.9509 38.8923 18.7094 39.5651 20.1636 39.0124C21.5286 38.4935 22.1537 36.9758 21.6036 35.5164C21.1027 34.1886 20.4882 33.7666 19.0551 33.7666C18.452 33.7666 17.7242 33.9153 17.4378 34.0978ZM68.7479 48.2763C65.6734 49.165 64.1491 53.4264 65.7787 56.5773C66.9143 58.7731 68.3584 59.1947 74.7416 59.1947H80.466V53.7585C80.466 49.2062 80.3532 48.2789 79.772 48.0561C78.7105 47.6486 70.3411 47.8161 68.7479 48.2763ZM28.554 51.6626C26.8613 53.533 28.2158 56.5628 30.7451 56.5628C31.7206 56.5628 33.5305 54.7104 33.5305 53.7116C33.5305 53.4146 33.1213 52.6518 32.6212 52.0162C31.5399 50.641 29.6287 50.4748 28.554 51.6626ZM17.2944 68.7616C15.3656 70.3236 16.5662 73.6701 19.0551 73.6701C21.544 73.6701 22.7446 70.3236 20.8158 68.7616C19.5731 67.7558 18.5371 67.7558 17.2944 68.7616Z" fill="white"/>
<path d="M0.631836 28.6313H36.6318V80.6313H17.6318C8.24299 80.6313 0.631836 73.0202 0.631836 63.6313V28.6313Z" fill="white"/>
<path d="M12.7207 66L20.7627 48.3926H10.2012V44.584H25.5674V47.4258L17.4668 66H12.7207ZM32.54 44.2764C34.2197 44.2764 35.4941 44.8623 36.3633 46.0342C37.2324 47.2061 37.667 48.8516 37.667 50.9707C37.667 53.0898 37.2568 54.7451 36.4365 55.9365C35.6162 57.1279 34.3174 57.7236 32.54 57.7236C30.8896 57.7236 29.6348 57.1279 28.7754 55.9365C27.916 54.7451 27.4863 53.0898 27.4863 50.9707C27.4863 48.8516 27.8867 47.2061 28.6875 46.0342C29.498 44.8623 30.7822 44.2764 32.54 44.2764ZM32.5693 47.3379C32.0908 47.3379 31.7393 47.6406 31.5146 48.2461C31.29 48.8516 31.1777 49.7695 31.1777 51C31.1777 52.2305 31.29 53.1533 31.5146 53.7686C31.7393 54.3838 32.0908 54.6914 32.5693 54.6914C33.0479 54.6914 33.3994 54.3887 33.624 53.7832C33.8584 53.168 33.9756 52.2402 33.9756 51C33.9756 49.7695 33.8584 48.8516 33.624 48.2461C33.3994 47.6406 33.0479 47.3379 32.5693 47.3379ZM47.7451 44.584L35.8652 66H32.3496L44.2295 44.584H47.7451ZM47.54 52.8311C49.2197 52.8311 50.4941 53.417 51.3633 54.5889C52.2324 55.7607 52.667 57.4062 52.667 59.5254C52.667 61.6348 52.2568 63.2852 51.4365 64.4766C50.6162 65.668 49.3174 66.2637 47.54 66.2637C45.8896 66.2637 44.6348 65.668 43.7754 64.4766C42.916 63.2852 42.4863 61.6348 42.4863 59.5254C42.4863 57.4062 42.8867 55.7607 43.6875 54.5889C44.498 53.417 45.7822 52.8311 47.54 52.8311ZM47.5693 55.8926C47.0908 55.8926 46.7393 56.1953 46.5146 56.8008C46.29 57.4062 46.1777 58.3242 46.1777 59.5547C46.1777 60.7852 46.29 61.708 46.5146 62.3232C46.7393 62.9385 47.0908 63.2461 47.5693 63.2461C48.0479 63.2461 48.3994 62.9434 48.624 62.3379C48.8584 61.7227 48.9756 60.7949 48.9756 59.5547C48.9756 58.3242 48.8584 57.4062 48.624 56.8008C48.3994 56.1953 48.0479 55.8926 47.5693 55.8926Z" fill="#E71C36"/>
</svg>
