<svg width="44" height="23" viewBox="0 0 44 23" fill="none" xmlns="http://www.w3.org/2000/svg">
<path d="M23.5527 21.928C24.516 18.2236 24.516 18.2236 32.4311 13.6761C28.9 13.5002 26.2834 13.4407 23.7664 13.372C21.0502 13.3217 18.3433 13.371 15.6364 13.4202C11.9337 13.5615 8.24935 13.9019 4.64622 14.034C3.14339 14.0724 1.01712 14.9719 0.886674 12.4733C0.684256 10.2826 2.87491 10.0802 4.37774 10.0418C9.76404 9.64451 15.2591 9.33762 20.6638 9.1395C23.6695 9.06263 26.712 9.38407 30.2339 9.46034C26.7975 5.96168 21.745 5.62512 18.7236 1.18427C20.3261 1.13664 21.403 0.836278 22.3268 1.0522C29.1472 3.13349 35.5342 5.95782 41.3345 10.0415C41.8692 10.3938 42.413 10.8456 42.7578 11.3159C44.2271 13.0883 44.022 15.2161 41.8865 16.016C36.2676 18.2425 30.5214 20.1794 24.7844 22.2158C24.6037 22.4334 24.2773 22.1623 23.5527 21.928Z" fill="#555555"/>
</svg>
